<?xml version="1.0" encoding="utf-8"?>
<!-- Generator: Adobe Illustrator 19.2.1, SVG Export Plug-In . SVG Version: 6.00 Build 0)  -->
<svg version="1.1" id="Layer_1" xmlns="http://www.w3.org/2000/svg" xmlns:xlink="http://www.w3.org/1999/xlink" x="0px" y="0px"
	 viewBox="0 0 500 500" style="enable-background:new 0 0 500 500;" xml:space="preserve">
<style type="text/css">
	.st0{background-color:#0000FF; stroke:#000000;stroke-miterlimit:10;}
	.st1{fill:#C1272D;}
	.st2{fill:#1B1464;}
</style>



<rect x="44.1" id="rectangle" y="37.9" class="st0"  width="411.4" height="425.3"/>
<path class="st1" d="M156.9,415.4L62.5,251.9l94.4-163.5h188.8l94.4,163.5l-94.4,163.5H156.9z"/>
<path class="st2" d="M332.9,183.8c2.5-2.6,8.2-4.2,17.2-5v-4.6h-47.8l-53,121.2l-55.4-121.2h-47.5v4.6c9.9,0.6,16.2,2.2,18.8,4.7
	c2.6,2.5,4,8.1,4,16.9v97.4c0,12.3-1.4,20.4-4.2,24.1c-2.8,3.8-9.2,6-19.1,6.6v4.6h56.4v-4.6c-9.3-0.5-15.4-2.7-18.2-6.6
	c-2.9-3.9-4.3-12-4.3-24.1v-96.7l60.2,132h3.4l61.4-137.5v108.7c0,9.9-1.3,16.3-3.8,19.1c-2.6,2.8-8.6,4.5-18,5.2v4.6h67.2v-4.6
	c-8.8-0.6-14.5-2.3-17-4.9c-2.6-2.6-3.8-8.2-3.8-16.7V200.3C329.2,191.9,330.4,186.3,332.9,183.8z"/>
	
<script>
<![CDATA[var yabbadaabadoo = document.getElementById('rectangle');
yabbadaabadoo.style.fill = "blue";
yabbadaabadoo.setAttribute("width", "200");
]]>
</script>

</svg>
